<svg aria-hidden="true" style="position:absolute;width:0;height:0;overflow:hidden" xmlns="http://www.w3.org/2000/svg">
  <defs>
    <!-- Logo -->
    <symbol id="icon-logo" viewBox="0 0 32 32">
      <path d="m16.163 0-2.305 8.492-6.523-5.907 2.65 8.399-8.679-1.437 6.775 5.618L0 18.655l8.735 1.064-4.918 7.307 7.932-3.826-.187 8.8 4.601-7.503L20.764 32l-.187-8.8 7.923 3.826-4.909-7.307 8.735-1.064-8.081-3.49 6.775-5.618-8.688 1.437 2.66-8.399-6.532 5.907L16.164 0z"/>
    </symbol>
      <!-- Icon Shoping -->
    <symbol id="icon-shopping" viewBox="0 0 32 32">
      <path stroke-linejoin="round" stroke-width="2.909" d="M12 29.324a1.331 1.331 0 1 1-.014-2.662A1.331 1.331 0 0 1 12 29.324zM26.662 29.324a1.331 1.331 0 1 1 0-2.662c.727 0 1.338.596 1.338 1.338 0 .727-.611 1.324-1.338 1.324z"/>
      <path stroke-linejoin="round" stroke-linecap="round" stroke-width="2.909" d="M1.324 1.324h5.338l3.564 17.862c.131.611.465 1.164.945 1.556a2.68 2.68 0 0 0 1.731.582h12.96a2.609 2.609 0 0 0 1.716-.582 2.61 2.61 0 0 0 .945-1.556l2.138-11.185H7.985"/>
    </symbol>
     <!-- icon-star_promo -->
    <symbol id="icon-star_promo" viewBox="0 0 32 32">
      <path d="M13.861 8.496 16.164 0l2.299 8.496 6.528-5.908-2.658 8.394 8.684-1.437-6.773 5.622 8.084 3.487-8.737 1.066 4.916 7.304-7.929-3.825.188 8.798-4.601-7.5-4.601 7.5.188-8.798-7.929 3.825 4.916-7.304-8.737-1.066 8.08-3.487-6.773-5.622 8.684 1.437-2.658-8.394 6.528 5.908zm2.302-3.813-1.641 6.059-4.654-4.209 1.894 5.985-6.193-1.025 4.83 4.009-5.761 2.482 6.23.763-3.507 5.205 5.655-2.727-.135 6.275 3.283-5.348 3.278 5.348-.131-6.275 5.65 2.727-3.503-5.205 6.23-.763-5.765-2.482 4.83-4.009-6.189 1.025 1.894-5.985-4.654 4.209-1.641-6.059z"/>
    </symbol>
       <!-- icon-fb -->
    <symbol id="icon-fb" viewBox="0 0 32 32">
      <path d="M20.533 28v-9.293h3.107l.467-3.613h-3.573v-2.307c0-1.04.293-1.76 1.787-1.76h1.907V7.8a24.15 24.15 0 0 0-2.787-.133c-2.747 0-4.64 1.68-4.64 4.773v2.653h-3.12v3.613h3.12v9.293H5.334c-.36 0-.693-.147-.947-.4S4 27.012 4 26.666V5.333a1.32 1.32 0 0 1 1.334-1.334h21.333c.347 0 .68.133.933.387s.4.587.4.947v21.333c0 .347-.147.68-.4.933s-.587.4-.933.4h-6.133z"/>
    </symbol>
     <!-- icon-instagram -->
    <symbol id="icon-instagram" viewBox="0 0 32 32">
      <path d="M16 2.667c3.613 0 4.067 0 5.493.08 1.413.053 2.387.28 3.227.613.88.333 1.627.8 2.373 1.533.68.667 1.2 1.48 1.533 2.373.333.84.56 1.813.627 3.227.053 1.427.08 1.88.08 5.507 0 3.613-.013 4.067-.08 5.493-.067 1.413-.293 2.387-.627 3.227a6.494 6.494 0 0 1-1.533 2.373c-.667.68-1.48 1.2-2.373 1.533-.84.333-1.813.56-3.227.613-1.427.067-1.88.093-5.493.093-3.627 0-4.08-.013-5.507-.093-1.413-.053-2.387-.28-3.227-.613a6.494 6.494 0 0 1-2.373-1.533A6.502 6.502 0 0 1 3.36 24.72c-.333-.84-.56-1.813-.613-3.227-.067-1.427-.08-1.88-.08-5.493 0-3.627.013-4.08.08-5.507.053-1.413.28-2.387.613-3.227a6.494 6.494 0 0 1 1.533-2.373c.667-.68 1.48-1.2 2.373-1.533.84-.333 1.813-.56 3.227-.613 1.427-.067 1.88-.08 5.507-.08zm0 6.666c-1.773 0-3.467.693-4.72 1.947S9.333 14.227 9.333 16A6.67 6.67 0 0 0 16 22.667c1.76 0 3.453-.707 4.707-1.96s1.96-2.947 1.96-4.707A6.672 6.672 0 0 0 16 9.333zM24.667 9c0-.453-.187-.867-.493-1.187a1.686 1.686 0 0 0-2.36 0 1.695 1.695 0 0 0 0 2.36c.32.307.733.493 1.187.493.44 0 .853-.187 1.173-.493A1.7 1.7 0 0 0 24.667 9zM16 12a4.03 4.03 0 0 1 2.827 1.16A4.048 4.048 0 0 1 20 16a4.047 4.047 0 0 1-1.173 2.827A4.04 4.04 0 0 1 16 20a4.053 4.053 0 0 1-2.84-1.173A4.028 4.028 0 0 1 12 16c0-1.067.413-2.08 1.16-2.84A4.036 4.036 0 0 1 16 12z"/>
    </symbol>
     <!-- icon-youtube -->
    <symbol id="icon-youtube" viewBox="0 0 32 32">
      <path d="M28.72 8.653c.613 2.373.613 7.347.613 7.347s0 4.96-.613 7.333c-.347 1.307-1.333 2.347-2.587 2.693-2.28.64-10.133.64-10.133.64s-7.867 0-10.147-.64c-1.253-.36-2.253-1.387-2.587-2.693-.6-2.373-.6-7.333-.6-7.333s0-4.973.6-7.347c.347-1.307 1.333-2.347 2.587-2.693C8.133 5.333 16 5.333 16 5.333s7.853 0 10.133.627c1.267.36 2.253 1.387 2.587 2.693zM13.333 20.667l8-4.667-8-4.667v9.333z"/>
    </symbol>
    
    <!-- Modal icons -->
    <symbol id="icon-close" viewBox="0 0 32 32">
      <path d="M32 3.223 28.777 0 16 12.777 3.223 0 0 3.223 12.777 16 0 28.777 3.223 32 16 19.223 28.777 32 32 28.777 19.223 16 32 3.223z"/>
    </symbol>
    <symbol id="icon-phone" viewBox="0 0 32 32">
      <path d="m28.865 21.822-4.525-.517a3.543 3.543 0 0 0-2.921 1.015l-3.278 3.278A26.8 26.8 0 0 1 6.402 13.859l3.296-3.296a3.545 3.545 0 0 0 1.015-2.921l-.517-4.489A3.566 3.566 0 0 0 6.651 0H3.569C1.556 0-.118 1.675.006 3.687.95 18.9 13.117 31.049 28.312 31.993c2.013.125 3.687-1.55 3.687-3.563v-3.082c.018-1.799-1.336-3.313-3.135-3.527z"/>
    </symbol>
    <symbol id="icon-email" viewBox="0 0 43 32">
      <path d="M37.333 0h-32c-2.2 0-3.98 1.8-3.98 4l-.02 24c0 2.2 1.8 4 4 4h32c2.2 0 4-1.8 4-4V4c0-2.2-1.8-4-4-4zm-.8 8.5-14.14 8.84c-.64.4-1.48.4-2.12 0L6.133 8.5c-.5-.32-.8-.86-.8-1.44 0-1.34 1.46-2.14 2.6-1.44l13.4 8.38 13.4-8.38c1.14-.7 2.6.1 2.6 1.44 0 .58-.3 1.12-.8 1.44z"/>
    </symbol>
    <symbol id="icon-name" viewBox="0 0 32 32">
      <path d="M16 16c4.42 0 8-3.58 8-8s-3.58-8-8-8-8 3.58-8 8 3.58 8 8 8zm0 4c-5.34 0-16 2.68-16 8v2c0 1.1.9 2 2 2h28c1.1 0 2-.9 2-2v-2c0-5.32-10.66-8-16-8z"/>
    </symbol>
    <symbol id="icon-choose" viewBox="0 0 32 32">
      <path d="M26.151 1.405a3.2 3.2 0 1 1 5.297 3.591L14.092 30.595c-1.269 1.872-4.028 1.872-5.297 0L.551 18.435a3.199 3.199 0 1 1 5.297-3.591l5.595 8.253L26.15 1.404z"/>
    </symbol>
    
  </defs>
</svg>
